<?xml version="1.0" encoding="UTF-8"?>
<!DOCTYPE svg PUBLIC "-//W3C//DTD SVG 1.1//EN" "http://www.w3.org/Graphics/SVG/1.1/DTD/svg11.dtd">
<!-- Creator: CorelDRAW X8 -->
<svg xmlns="http://www.w3.org/2000/svg" xml:space="preserve" width="281.108mm" height="133.984mm" version="1.1" style="shape-rendering:geometricPrecision; text-rendering:geometricPrecision; image-rendering:optimizeQuality; fill-rule:evenodd; clip-rule:evenodd"
viewBox="0 0 5434 2590"
 xmlns:xlink="http://www.w3.org/1999/xlink">
 <defs>
  <style type="text/css">
   <![CDATA[
    .fil7 {fill:#E63375}
    .fil4 {fill:#6FCB4F}
    .fil5 {fill:#FAAD00}
    .fil6 {fill:#FC4F00}
    .fil8 {fill:#891C6D}
    .fil2 {fill:#0075BF}
    .fil3 {fill:#14ACCA}
    .fil0 {fill:#633D73;fill-rule:nonzero}
    .fil1 {fill:url(#id0)}
   ]]>
  </style>
  <linearGradient id="id0" gradientUnits="userSpaceOnUse" x1="273.189" y1="1674.33" x2="1479.92" y2="429.682">
   <stop offset="0" style="stop-opacity:1; stop-color:#543464"/>
   <stop offset="1" style="stop-opacity:1; stop-color:#714684"/>
  </linearGradient>
 </defs>
 <g id="Слой_x0020_1">
  <metadata id="CorelCorpID_0Corel-Layer"/>
  <g id="_2715007300208">
   <path class="fil0" d="M111 2520l-41 -209 38 0 18 106c2,11 4,22 5,33 2,11 4,22 5,34l2 0c2,-12 4,-23 6,-34 3,-11 5,-22 7,-33l26 -106 32 0 26 106c2,11 5,22 7,33 2,11 5,22 7,34l1 0c2,-12 4,-23 5,-34 2,-11 4,-22 5,-33l18 -106 36 0 -40 209 -46 0 -26 -110c-2,-8 -3,-16 -5,-24 -2,-8 -3,-16 -4,-24l-2 0c-2,15 -6,31 -9,48l-25 110 -46 0zm232 0l0 -226 37 0 0 59 -1 30c7,-6 14,-12 22,-16 8,-5 17,-8 28,-8 17,0 29,6 37,17 8,11 11,26 11,46l0 98 -36 0 0 -93c0,-13 -2,-23 -6,-28 -4,-5 -10,-8 -19,-8 -7,0 -13,2 -18,5 -5,3 -11,8 -18,15l0 109 -37 0zm229 -25c6,0 12,-1 17,-4 6,-3 11,-7 17,-13l0 -35c-21,3 -36,7 -44,12 -9,6 -13,12 -13,20 0,7 2,12 7,16 4,3 9,4 16,4zm-12 29c-14,0 -25,-4 -33,-13 -9,-8 -13,-19 -13,-33 0,-17 7,-30 22,-39 14,-9 38,-16 70,-19 0,-8 -3,-16 -7,-22 -4,-6 -11,-9 -22,-9 -7,0 -15,2 -22,5 -8,3 -15,6 -22,11l-13 -25c8,-5 18,-10 29,-14 11,-4 23,-7 35,-7 39,0 59,23 59,68l0 93 -31 0 -2 -17 -1 0c-7,6 -15,11 -23,15 -8,4 -17,6 -26,6zm177 0c-18,0 -31,-5 -38,-15 -8,-11 -12,-25 -12,-42l0 -75 -22 0 0 -27 24 -2 5 -43 30 0 0 43 40 0 0 29 -40 0 0 75c0,19 8,28 23,28 5,0 10,-1 16,-4l6 27c-4,2 -9,3 -14,4 -6,2 -12,2 -18,2zm67 -129l-8 -16c8,-5 15,-11 19,-17 5,-6 7,-14 7,-23 -1,0 -2,0 -3,0 -5,0 -10,-2 -14,-5 -5,-4 -7,-9 -7,-15 0,-6 2,-12 6,-16 4,-4 9,-6 15,-6 17,0 25,12 25,36 0,27 -13,48 -40,62zm112 129c-11,0 -22,-2 -32,-6 -11,-4 -20,-9 -28,-16l18 -23c7,5 14,10 21,13 6,3 14,4 22,4 9,0 15,-1 19,-5 4,-3 6,-8 6,-13 0,-7 -3,-12 -10,-16 -8,-3 -15,-7 -24,-10 -10,-4 -20,-9 -29,-16 -10,-6 -15,-16 -15,-30 0,-13 5,-24 16,-33 10,-9 24,-14 42,-14 10,0 20,2 29,6 9,4 16,8 23,13l-17 23c-6,-4 -11,-8 -17,-10 -6,-3 -12,-4 -18,-4 -8,0 -13,2 -17,5 -4,4 -6,8 -6,13 0,6 3,10 10,14 7,3 14,6 23,9 10,4 21,9 30,16 10,6 15,17 15,32 0,13 -5,24 -16,34 -10,9 -25,14 -45,14zm158 -4l0 -226 37 0 0 59 -2 30c7,-6 14,-12 22,-16 9,-5 18,-8 29,-8 17,0 29,6 36,17 8,11 12,26 12,46l0 98 -37 0 0 -93c0,-13 -2,-23 -6,-28 -4,-5 -10,-8 -18,-8 -7,0 -13,2 -19,5 -5,3 -11,8 -17,15l0 109 -37 0zm228 -25c7,0 13,-1 18,-4 5,-3 11,-7 17,-13l0 -35c-22,3 -37,7 -45,12 -8,6 -12,12 -12,20 0,7 2,12 6,16 4,3 10,4 16,4zm-11 29c-14,0 -25,-4 -34,-13 -9,-8 -13,-19 -13,-33 0,-17 7,-30 22,-39 15,-9 38,-16 71,-19 -1,-8 -3,-16 -7,-22 -4,-6 -12,-9 -22,-9 -8,0 -15,2 -23,5 -7,3 -14,6 -21,11l-14 -25c9,-5 19,-10 30,-14 11,-4 22,-7 35,-7 39,0 58,23 58,68l0 93 -30 0 -3 -17 -1 0c-7,6 -14,11 -22,15 -8,4 -17,6 -26,6zm195 -30c10,0 19,-5 26,-14 7,-9 11,-23 11,-40 0,-16 -3,-28 -8,-37 -6,-9 -14,-13 -26,-13 -11,0 -23,6 -35,17l0 74c6,4 12,8 17,10 5,2 10,3 15,3zm-68 88l0 -219 30 0 3 17 1 0c6,-6 14,-10 22,-14 8,-5 17,-7 25,-7 20,0 35,8 46,22 10,15 16,34 16,58 0,27 -7,48 -21,63 -13,15 -29,22 -46,22 -14,0 -27,-6 -41,-17l1 26 0 49 -36 0zm248 -88c11,0 20,-5 27,-14 7,-9 10,-23 10,-40 0,-16 -2,-28 -8,-37 -5,-9 -14,-13 -26,-13 -11,0 -22,6 -34,17l0 74c6,4 11,8 16,10 6,2 11,3 15,3zm-68 88l0 -219 30 0 3 17 1 0c7,-6 14,-10 22,-14 9,-5 17,-7 26,-7 19,0 34,8 45,22 11,15 16,34 16,58 0,27 -6,48 -20,63 -14,15 -29,22 -47,22 -13,0 -27,-6 -40,-17l1 26 0 49 -37 0zm248 -58c-22,0 -40,-7 -55,-22 -15,-14 -23,-34 -23,-60 0,-17 4,-32 11,-44 7,-13 16,-22 27,-29 11,-6 22,-10 35,-10 21,0 37,7 48,21 11,14 16,32 16,54 0,8 0,14 -1,18l-100 0c2,14 7,25 15,32 8,8 19,12 31,12 7,0 14,-1 20,-3 5,-2 11,-5 17,-9l12 23c-7,5 -15,9 -25,12 -9,4 -18,5 -28,5zm-42 -97l70 0c0,-12 -3,-22 -8,-29 -6,-7 -14,-10 -24,-10 -10,0 -18,3 -25,10 -7,7 -12,16 -13,29zm137 93l0 -157 30 0 3 21 1 0c7,-6 15,-12 23,-17 8,-5 18,-8 28,-8 17,0 30,6 37,17 8,11 12,26 12,46l0 98 -37 0 0 -93c0,-13 -2,-23 -6,-28 -4,-5 -10,-8 -19,-8 -6,0 -13,2 -18,5 -5,3 -11,8 -18,15l0 109 -36 0zm197 -184c-6,0 -12,-2 -16,-6 -4,-4 -6,-9 -6,-15 0,-6 2,-11 6,-15 4,-4 10,-6 16,-6 7,0 12,2 17,6 4,4 6,9 6,15 0,6 -2,11 -6,15 -5,4 -10,6 -17,6zm-18 184l0 -157 37 0 0 157 -37 0zm84 0l0 -157 30 0 3 21 1 0c7,-6 15,-12 23,-17 8,-5 18,-8 28,-8 17,0 30,6 37,17 8,11 12,26 12,46l0 98 -37 0 0 -93c0,-13 -2,-23 -6,-28 -4,-5 -10,-8 -19,-8 -6,0 -12,2 -18,5 -5,3 -11,8 -17,15l0 109 -37 0zm236 -73c7,0 13,-2 19,-8 5,-5 8,-13 8,-23 0,-10 -3,-18 -8,-23 -5,-6 -12,-8 -19,-8 -8,0 -15,2 -20,8 -5,5 -8,13 -8,23 0,10 3,18 8,23 5,6 12,8 20,8zm-2 143c-19,0 -35,-4 -47,-10 -12,-7 -19,-17 -19,-31 0,-13 8,-24 23,-34l0 -1c-4,-3 -8,-6 -10,-10 -3,-5 -4,-10 -4,-16 0,-6 1,-12 5,-17 3,-5 7,-9 12,-12l0 -2c-5,-4 -10,-9 -14,-17 -4,-7 -7,-15 -7,-24 0,-18 7,-32 19,-42 13,-10 27,-15 44,-15 8,0 15,2 23,4l56 0 0 27 -29 0c6,8 9,16 9,27 0,18 -6,31 -17,40 -12,9 -26,13 -42,13 -8,0 -15,-1 -22,-4 -2,2 -4,5 -5,7 -2,2 -3,5 -3,8 0,5 2,8 6,11 4,2 10,4 20,4l28 0c38,0 57,13 57,38 0,16 -7,29 -22,40 -15,10 -36,16 -61,16zm5 -24c13,0 23,-3 31,-8 8,-5 12,-11 12,-17 0,-7 -2,-11 -7,-13 -5,-2 -12,-3 -21,-3l-21 0c-9,0 -16,-1 -22,-2 -8,6 -12,13 -12,20 0,7 4,13 11,17 7,4 17,6 29,6zm106 13l-8 -21c22,-8 33,-21 32,-38 -1,0 -2,0 -3,0 -6,0 -11,-2 -16,-6 -5,-4 -7,-10 -7,-17 0,-7 2,-12 7,-16 5,-5 11,-7 17,-7 9,0 16,4 21,10 4,7 7,16 7,28 0,16 -4,29 -13,41 -9,12 -21,20 -37,26zm155 -59l0 -209 67 0c22,0 40,4 54,11 14,8 21,21 21,41 0,10 -2,19 -7,27 -6,9 -13,15 -22,18l0 1c12,3 21,8 29,17 7,8 11,19 11,33 0,21 -8,36 -23,46 -15,10 -34,15 -57,15l-73 0zm38 -122l26 0c15,0 25,-3 32,-8 6,-6 10,-13 10,-22 0,-10 -4,-17 -10,-22 -7,-4 -18,-6 -31,-6l-27 0 0 58zm0 94l31 0c32,0 48,-12 48,-35 0,-21 -16,-32 -48,-32l-31 0 0 67zm154 28l0 -209 126 0 0 31 -89 0 0 54 75 0 0 31 -75 0 0 62 92 0 0 31 -129 0zm172 0l0 -209 126 0 0 31 -89 0 0 60 76 0 0 31 -76 0 0 87 -37 0zm241 4c-27,0 -49,-10 -66,-29 -18,-20 -26,-46 -26,-80 0,-34 8,-60 26,-79 17,-19 39,-29 66,-29 27,0 49,10 67,29 17,19 25,45 25,79 0,34 -8,60 -25,80 -18,19 -40,29 -67,29zm0 -32c16,0 29,-7 39,-21 10,-14 15,-33 15,-56 0,-24 -5,-42 -15,-55 -10,-14 -23,-20 -39,-20 -17,0 -30,6 -39,20 -10,13 -15,31 -15,55 0,23 5,42 15,56 9,14 22,21 39,21zm171 -83l30 0c30,0 44,-12 44,-36 0,-12 -3,-20 -11,-25 -8,-5 -19,-7 -33,-7l-30 0 0 68zm0 111l-37 0 0 -209 71 0c22,0 40,5 55,14 14,9 22,25 22,48 0,16 -4,29 -12,39 -7,10 -17,17 -30,21l50 87 -41 0 -46 -82 -32 0 0 82zm153 0l0 -209 126 0 0 31 -89 0 0 54 75 0 0 31 -75 0 0 62 92 0 0 31 -129 0zm251 -184c-6,0 -12,-2 -16,-6 -4,-4 -7,-9 -7,-15 0,-6 3,-11 7,-15 4,-4 10,-6 16,-6 7,0 12,2 17,6 4,4 6,9 6,15 0,6 -2,11 -6,15 -5,4 -10,6 -17,6zm-18 184l0 -157 36 0 0 157 -36 0zm139 4c-18,0 -31,-5 -39,-15 -7,-11 -11,-25 -11,-42l0 -75 -22 0 0 -27 24 -2 4 -43 31 0 0 43 40 0 0 29 -40 0 0 75c0,19 7,28 22,28 5,0 11,-1 16,-4l7 27c-4,2 -9,3 -15,4 -5,2 -11,2 -17,2zm124 -4l0 -226 37 0 0 59 -1 30c6,-6 13,-12 22,-16 8,-5 17,-8 28,-8 17,0 29,6 37,17 7,11 11,26 11,46l0 98 -37 0 0 -93c0,-13 -2,-23 -6,-28 -4,-5 -10,-8 -18,-8 -7,0 -13,2 -18,5 -6,3 -12,8 -18,15l0 109 -37 0zm228 -25c7,0 13,-1 18,-4 5,-3 11,-7 17,-13l0 -35c-22,3 -36,7 -45,12 -8,6 -12,12 -12,20 0,7 2,12 6,16 4,3 10,4 16,4zm-11 29c-14,0 -25,-4 -34,-13 -8,-8 -13,-19 -13,-33 0,-17 8,-30 22,-39 15,-9 38,-16 71,-19 -1,-8 -3,-16 -7,-22 -4,-6 -11,-9 -22,-9 -8,0 -15,2 -23,5 -7,3 -14,6 -21,11l-14 -25c9,-5 19,-10 30,-14 11,-4 23,-7 35,-7 39,0 58,23 58,68l0 93 -30 0 -2 -17 -2 0c-7,6 -14,11 -22,15 -8,4 -17,6 -26,6zm195 -30c11,0 19,-5 26,-14 7,-9 11,-23 11,-40 0,-16 -3,-28 -8,-37 -5,-9 -14,-13 -26,-13 -11,0 -23,6 -35,17l0 74c6,4 12,8 17,10 5,2 10,3 15,3zm-68 88l0 -219 30 0 3 17 1 0c6,-6 14,-10 22,-14 8,-5 17,-7 25,-7 20,0 35,8 46,22 11,15 16,34 16,58 0,27 -7,48 -20,63 -14,15 -30,22 -47,22 -13,0 -27,-6 -41,-17l1 26 0 49 -36 0zm249 -88c10,0 19,-5 26,-14 7,-9 10,-23 10,-40 0,-16 -2,-28 -8,-37 -5,-9 -14,-13 -26,-13 -11,0 -22,6 -34,17l0 74c6,4 11,8 17,10 5,2 10,3 15,3zm-69 88l0 -219 31 0 2 17 1 0c7,-6 14,-10 23,-14 8,-5 16,-7 25,-7 19,0 35,8 45,22 11,15 16,34 16,58 0,27 -6,48 -20,63 -14,15 -29,22 -47,22 -13,0 -26,-6 -40,-17l1 26 0 49 -37 0zm248 -58c-22,0 -40,-7 -55,-22 -15,-14 -23,-34 -23,-60 0,-17 4,-32 11,-44 7,-13 16,-22 27,-29 11,-6 22,-10 35,-10 21,0 37,7 48,21 11,14 17,32 17,54 0,8 -1,14 -2,18l-100 0c2,14 7,25 15,32 8,8 19,12 32,12 6,0 13,-1 19,-3 5,-2 11,-5 17,-9l13 23c-8,5 -16,9 -25,12 -10,4 -19,5 -29,5zm-42 -97l70 0c0,-12 -3,-22 -8,-29 -6,-7 -14,-10 -24,-10 -10,0 -18,3 -25,10 -7,7 -11,16 -13,29zm137 93l0 -157 30 0 3 21 1 0c7,-6 15,-12 23,-17 8,-5 18,-8 29,-8 16,0 29,6 36,17 8,11 12,26 12,46l0 98 -37 0 0 -93c0,-13 -2,-23 -6,-28 -4,-5 -10,-8 -19,-8 -6,0 -12,2 -18,5 -5,3 -11,8 -17,15l0 109 -37 0zm223 4c-11,0 -22,-2 -32,-6 -11,-4 -20,-9 -28,-16l18 -23c7,5 14,10 21,13 6,3 14,4 22,4 9,0 15,-1 19,-5 4,-3 6,-8 6,-13 0,-7 -3,-12 -10,-16 -8,-3 -15,-7 -24,-10 -10,-4 -20,-9 -29,-16 -10,-6 -15,-16 -15,-30 0,-13 5,-24 16,-33 10,-9 24,-14 42,-14 10,0 20,2 29,6 9,4 16,8 23,13l-17 23c-6,-4 -11,-8 -17,-10 -6,-3 -12,-4 -18,-4 -8,0 -13,2 -17,5 -4,4 -6,8 -6,13 0,6 3,10 10,14 7,3 14,6 23,9 10,4 21,9 30,16 10,6 15,17 15,32 0,13 -5,24 -16,34 -10,9 -25,14 -45,14zm109 -72l-5 -110 -1 -36 37 0 -2 36 -5 110 -24 0zm12 72c-7,0 -12,-2 -17,-7 -5,-5 -7,-10 -7,-18 0,-7 2,-13 7,-18 5,-4 10,-7 17,-7 7,0 13,3 17,7 5,5 7,11 7,18 0,8 -2,13 -7,18 -4,5 -10,7 -17,7z"/>
   <g>
    <path class="fil1" d="M867 176c479,0 867,388 867,867 0,446 -337,813 -771,861 112,-267 248,-588 386,-876 0,0 40,-88 -52,-128 -93,-40 -143,54 -143,54 -63,117 -218,376 -386,346 -176,-32 -45,-337 -45,-337 834,-97 803,-714 355,-650 -258,38 -428,258 -514,489 -107,-4 -189,-18 -269,-100 -52,-53 -108,16 -68,74 64,94 168,153 278,183 -38,164 -54,430 157,477 200,45 343,-104 343,-104 -79,217 -102,329 -169,577 -465,-17 -836,-398 -836,-866 0,-479 388,-867 867,-867zm-63 626c155,-2 484,-222 395,-328 -52,-63 -267,42 -395,328z"/>
    <path class="fil0" d="M2777 626c0,-35 -4,-66 -12,-92 -9,-26 -21,-48 -36,-65 -15,-17 -33,-30 -54,-39 -20,-9 -43,-13 -68,-13 -25,0 -48,4 -68,13 -21,9 -39,22 -54,39 -15,17 -27,39 -36,65 -8,26 -12,57 -12,92 0,35 4,65 12,91 9,26 21,48 36,65 15,18 33,31 54,39 20,9 43,13 68,13 25,0 48,-4 68,-13 21,-8 39,-21 54,-39 15,-17 27,-39 36,-65 8,-26 12,-56 12,-91zm12 213c7,-2 16,-4 25,-6 9,-1 18,-3 28,-4 10,-1 20,-2 30,-2 10,-1 19,-1 29,-1l8 0 0 91c-15,-2 -34,-3 -55,-4 -21,-1 -44,-1 -68,-1 -18,0 -34,0 -48,1 -15,1 -29,2 -44,3 -14,1 -29,2 -44,3 -16,1 -31,1 -46,1 -45,0 -84,-7 -119,-21 -34,-14 -63,-35 -86,-61 -24,-26 -41,-57 -53,-93 -12,-36 -18,-76 -18,-119 0,-44 6,-84 19,-120 12,-37 30,-68 54,-94 24,-26 53,-47 88,-62 34,-14 74,-21 118,-21 44,0 84,7 118,21 35,15 64,35 88,61 24,26 42,57 55,93 12,36 18,75 18,118 0,22 -2,43 -6,65 -5,21 -11,40 -19,59 -8,18 -18,35 -31,51 -12,16 -26,29 -41,41l0 1zm559 -72l-217 0 -55 145 -112 0 227 -572 96 0 227 572 -111 0 -55 -145zm-109 -289c-21,59 -39,109 -55,149l-19 52 149 0 -19 -51c-16,-41 -34,-91 -55,-150l-1 0zm544 434l-105 0 0 -484 -185 0 0 -88 475 0 0 88 -185 0 0 484zm546 -145l-216 0 -56 145 -111 0 227 -572 96 0 227 572 -111 0 -56 -145zm-109 -289c-20,59 -38,109 -54,149l-20 52 150 0 -20 -51c-15,-41 -34,-91 -54,-150l-2 0zm780 34c0,40 -11,74 -33,102 -22,27 -56,48 -102,61l0 2 171 235 -126 0 -156 -221 -72 0 0 221 -105 0 0 -572 174 0c29,0 56,2 80,5 25,3 46,8 64,15 34,13 60,32 78,57 18,25 27,57 27,95zm-266 91c24,0 44,-1 61,-3 16,-2 30,-6 42,-10 21,-8 35,-19 43,-33 8,-13 12,-29 12,-47 0,-16 -3,-29 -9,-41 -7,-12 -17,-21 -33,-28 -10,-5 -22,-8 -37,-10 -15,-2 -34,-3 -56,-3l-75 0 0 175 52 0zm-2276 1055l282 0 0 88 -387 0 0 -573 372 0 0 88 -267 0 0 148 229 0 0 88 -229 0 0 161zm605 -52c11,-31 18,-54 23,-67 5,-13 15,-40 30,-81l106 -285 111 0 -224 573 -94 0 -224 -573 112 0 106 285c15,41 25,68 30,81 4,13 12,36 22,67l2 0zm452 52l281 0 0 88 -386 0 0 -573 371 0 0 88 -266 0 0 148 228 0 0 88 -228 0 0 161zm691 -219c41,59 74,111 100,156l2 0c-3,-74 -5,-129 -5,-163l0 -259 105 0 0 573 -109 0 -187 -264c-33,-46 -67,-98 -102,-159l-3 0c4,71 5,125 5,163l0 260 -105 0 0 -573 110 0 189 266zm574 307l-106 0 0 -485 -184 0 0 -88 474 0 0 88 -184 0 0 485zm546 -165c0,-15 -4,-26 -11,-35 -7,-9 -17,-17 -29,-22 -12,-6 -26,-11 -41,-14 -15,-4 -31,-7 -48,-11 -22,-5 -44,-10 -64,-17 -20,-7 -38,-16 -53,-28 -15,-12 -28,-27 -37,-45 -9,-18 -13,-41 -13,-69 0,-30 5,-56 16,-79 10,-22 25,-41 43,-55 18,-15 39,-26 64,-33 24,-7 51,-11 82,-11 31,0 61,3 92,9 31,6 57,14 80,23l0 90c-30,-12 -59,-20 -86,-26 -27,-5 -53,-8 -77,-8 -34,0 -61,7 -79,19 -19,13 -28,32 -28,57 0,14 3,26 9,36 6,9 14,17 25,23 10,6 22,11 36,15 14,4 28,7 43,10 25,5 48,11 70,18 22,7 41,16 58,28 17,12 31,28 41,47 10,19 15,44 15,74 0,31 -6,57 -17,80 -12,22 -28,41 -49,56 -21,14 -46,25 -76,32 -30,8 -63,11 -99,11 -31,0 -62,-3 -92,-9 -30,-6 -55,-15 -75,-26l0 -89c29,13 56,22 83,27 27,6 54,9 83,9 16,0 33,-2 49,-5 16,-2 30,-7 43,-13 12,-7 23,-16 30,-27 8,-12 12,-25 12,-42z"/>
    <polygon class="fil2" points="2006,0 2077,0 2077,298 2006,298 "/>
    <polygon class="fil3" points="2006,298 2077,298 2077,596 2006,596 "/>
    <polygon class="fil4" points="2006,596 2077,596 2077,893 2006,893 "/>
    <polygon class="fil5" points="2006,893 2077,893 2077,1191 2006,1191 "/>
    <polygon class="fil6" points="2006,1191 2077,1191 2077,1489 2006,1489 "/>
    <polygon class="fil7" points="2006,1489 2077,1489 2077,1787 2006,1787 "/>
    <polygon class="fil8" points="2006,1787 2077,1787 2077,2085 2006,2085 "/>
   </g>
  </g>
 </g>
</svg>
