<?xml version="1.0" encoding="UTF-8"?>
<!DOCTYPE svg PUBLIC "-//W3C//DTD SVG 1.1//EN" "http://www.w3.org/Graphics/SVG/1.1/DTD/svg11.dtd">
<!-- Creator: CorelDRAW X8 -->
<svg xmlns="http://www.w3.org/2000/svg" xml:space="preserve" width="118.534mm" height="56.4965mm" version="1.1" style="shape-rendering:geometricPrecision; text-rendering:geometricPrecision; image-rendering:optimizeQuality; fill-rule:evenodd; clip-rule:evenodd"
viewBox="0 0 45030 21463"
 xmlns:xlink="http://www.w3.org/1999/xlink">
 <defs>
  <style type="text/css">
   <![CDATA[
    .fil2 {fill:#008DD2}
    .fil8 {fill:#441160}
    .fil3 {fill:#57A7B3}
    .fil4 {fill:#B0CB1F}
    .fil7 {fill:#BF2B22}
    .fil6 {fill:#F08143}
    .fil5 {fill:#FECC00}
    .fil1 {fill:#FEFEFE;fill-rule:nonzero}
    .fil0 {fill:url(#id0)}
   ]]>
  </style>
  <linearGradient id="id0" gradientUnits="userSpaceOnUse" x1="2264" y1="13875.7" x2="12264.5" y2="3560.91">
   <stop offset="0" style="stop-opacity:1; stop-color:#D9DADA"/>
   <stop offset="1" style="stop-opacity:1; stop-color:#FEFEFE"/>
  </linearGradient>
 </defs>
 <g id="Слой_x0020_1">
  <metadata id="CorelCorpID_0Corel-Layer"/>
  <g id="_2899026681696">
   <path class="fil0" d="M7184 1457c3968,0 7185,3216 7185,7184 0,3698 -2795,6744 -6387,7140 926,-2214 2055,-4877 3201,-7265 0,0 332,-722 -435,-1057 -767,-334 -1184,450 -1184,450 -524,967 -1806,3110 -3197,2863 -1460,-260 -375,-2790 -375,-2790 6909,-805 6657,-5918 2945,-5385 -2145,308 -3549,2134 -4265,4050 -883,-30 -1566,-148 -2229,-827 -433,-440 -892,134 -564,613 530,774 1397,1266 2302,1514 -314,1357 -439,3562 1303,3953 1656,372 2845,-865 2845,-865 -657,1801 -843,2732 -1405,4785 -3847,-137 -6924,-3298 -6924,-7179 0,-3968 3217,-7184 7184,-7184zm-523 5187c1283,-16 4011,-1837 3276,-2717 -433,-518 -2216,351 -3276,2717z"/>
   <path class="fil1" d="M23017 5186c0,-289 -35,-541 -106,-758 -70,-216 -168,-397 -294,-541 -125,-144 -274,-251 -446,-323 -172,-71 -360,-106 -566,-106 -206,0 -395,35 -567,106 -171,72 -320,179 -445,323 -126,144 -224,325 -294,541 -71,217 -107,469 -107,758 0,288 36,541 107,758 70,216 168,395 294,539 125,143 274,251 445,324 172,71 361,107 567,107 206,0 394,-36 566,-107 172,-73 321,-181 446,-324 126,-144 224,-323 294,-539 71,-217 106,-470 106,-758zm100 1767c58,-16 126,-31 202,-46 75,-14 153,-25 236,-35 81,-10 162,-17 244,-22 81,-5 161,-7 240,-7l66 0 0 755c-124,-12 -275,-22 -453,-29 -177,-7 -366,-11 -564,-11 -149,0 -282,4 -401,11 -119,7 -237,15 -357,23 -119,9 -243,16 -372,23 -129,7 -255,11 -378,11 -371,0 -699,-59 -982,-178 -285,-117 -523,-284 -717,-500 -195,-215 -341,-472 -440,-771 -99,-299 -149,-629 -149,-991 0,-362 52,-694 155,-995 103,-301 253,-562 450,-779 197,-217 439,-386 728,-508 286,-119 613,-180 980,-180 367,0 693,61 980,180 288,122 530,290 728,505 197,216 348,471 451,768 103,297 154,622 154,974 0,185 -18,364 -53,540 -35,174 -88,337 -154,489 -68,151 -153,293 -254,424 -102,131 -218,244 -348,338l8 11zm4628 -598l-1796 0 -460 1206 -926 0 1883 -4742 794 0 1884 4742 -919 0 -460 -1206zm-905 -2396c-170,493 -320,907 -451,1240l-161 430 1237 0 -161 -428c-130,-336 -280,-750 -450,-1242l-14 0zm4513 3602l-871 0 0 -4016 -1533 0 0 -726 3933 0 0 726 -1529 0 0 4016zm4527 -1206l-1796 0 -460 1206 -926 0 1883 -4742 794 0 1883 4742 -918 0 -460 -1206zm-906 -2396c-169,493 -319,907 -450,1240l-161 430 1237 0 -161 -428c-131,-336 -281,-750 -450,-1242l-15 0zm6465 284c0,331 -92,610 -275,841 -183,230 -466,401 -850,512l0 14 1423 1951 -1046 0 -1292 -1838 -596 0 0 1838 -872 0 0 -4742 1442 0c239,0 461,13 667,41 205,26 381,67 527,122 279,105 494,264 645,472 152,209 227,472 227,789zm-2209 754c198,0 367,-8 505,-27 138,-18 253,-44 347,-79 174,-66 295,-156 363,-271 67,-114 101,-246 101,-395 0,-127 -27,-241 -80,-339 -54,-98 -143,-174 -270,-231 -83,-39 -187,-65 -311,-84 -125,-18 -280,-26 -464,-26l-618 0 0 1452 427 0zm-18856 8742l2334 0 0 727 -3205 0 0 -4742 3076 0 0 726 -2205 0 0 1227 1894 0 0 726 -1894 0 0 1336zm5012 -433c87,-257 150,-440 190,-551 39,-110 121,-335 246,-675l880 -2356 918 0 -1855 4742 -780 0 -1854 -4742 925 0 880 2356c124,340 207,565 245,675 40,111 103,294 190,551l15 0zm3742 433l2334 0 0 727 -3205 0 0 -4742 3077 0 0 726 -2206 0 0 1227 1895 0 0 726 -1895 0 0 1336zm5727 -1811c340,485 617,915 830,1290l20 0c-27,-616 -42,-1065 -42,-1347l0 -2147 872 0 0 4742 -912 0 -1548 -2184c-272,-377 -553,-816 -845,-1314l-20 0c27,581 42,1031 42,1349l0 2149 -871 0 0 -4742 911 0 1563 2204zm4755 2538l-871 0 0 -4016 -1533 0 0 -726 3933 0 0 726 -1529 0 0 4016zm4527 -1364c0,-120 -29,-218 -89,-292 -59,-75 -139,-136 -240,-183 -102,-48 -216,-86 -342,-116 -126,-29 -259,-58 -397,-86 -184,-41 -360,-88 -528,-144 -167,-56 -314,-133 -441,-231 -127,-98 -229,-223 -304,-374 -76,-152 -114,-340 -114,-568 0,-250 44,-468 132,-655 87,-185 207,-339 357,-461 151,-121 327,-212 530,-272 202,-61 430,-91 683,-91 253,0 507,24 762,74 256,50 475,114 660,191l0 745c-246,-97 -482,-168 -708,-211 -225,-44 -438,-65 -637,-65 -285,0 -506,52 -661,156 -154,104 -232,260 -232,468 0,121 26,220 76,299 51,77 119,142 206,192 87,51 188,92 301,124 113,30 233,58 360,85 201,42 392,92 574,147 182,55 345,132 486,231 141,101 253,229 336,389 82,160 123,364 123,612 0,256 -47,477 -142,664 -94,186 -228,341 -403,463 -173,121 -383,212 -632,271 -249,60 -520,89 -815,89 -258,0 -512,-26 -762,-76 -249,-51 -456,-123 -622,-215l0 -733c235,101 463,175 685,221 222,46 452,69 688,69 137,0 272,-11 404,-34 132,-21 251,-60 356,-115 105,-54 190,-128 254,-222 64,-93 96,-208 96,-346z"/>
   <path class="fil1" d="M923 20887l-344 -1734 315 0 151 875c15,92 29,184 43,277 14,93 28,185 42,277l11 0c18,-92 36,-184 56,-277 19,-93 38,-185 58,-277l212 -875 268 0 212 875c19,90 39,182 58,274 20,93 39,187 59,280l10 0c14,-93 29,-186 43,-278 14,-92 27,-184 39,-276l152 -875 294 0 -332 1734 -381 0 -215 -912c-14,-67 -28,-134 -41,-202 -13,-67 -25,-133 -36,-198l-11 0c-23,127 -49,260 -79,400l-210 912 -374 0zm1923 0l0 -1872 305 0 0 483 -11 252c55,-52 116,-97 183,-137 67,-40 145,-60 234,-60 139,0 241,45 304,136 64,90 96,217 96,381l0 817 -305 0 0 -777c0,-108 -16,-184 -49,-228 -33,-44 -84,-66 -155,-66 -57,0 -107,14 -150,41 -43,27 -92,68 -147,121l0 909 -305 0zm1893 -207c53,0 101,-12 145,-37 43,-25 89,-60 139,-106l0 -292c-177,23 -300,57 -369,103 -69,45 -103,100 -103,165 0,59 18,101 53,128 35,26 80,39 135,39zm-98 239c-113,0 -205,-35 -277,-106 -72,-71 -107,-163 -107,-276 0,-140 60,-248 181,-325 121,-77 316,-129 585,-157 -4,-69 -22,-129 -56,-179 -33,-51 -94,-76 -183,-76 -63,0 -126,12 -187,37 -61,25 -120,55 -179,90l-111 -204c71,-44 152,-83 244,-118 92,-34 189,-52 292,-52 323,0 485,188 485,562l0 772 -252 0 -21 -143 -11 0c-58,49 -120,91 -187,125 -66,33 -138,50 -216,50zm1469 0c-152,0 -259,-43 -321,-130 -62,-87 -93,-201 -93,-342l0 -621 -185 0 0 -228 201 -13 37 -355 255 0 0 355 331 0 0 241 -331 0 0 621c0,152 61,228 183,228 44,0 89,-10 135,-29l53 225c-35,13 -75,24 -120,33 -45,10 -94,15 -145,15zm557 -1069l-74 -135c72,-42 127,-89 164,-140 37,-52 56,-116 56,-194 -7,2 -15,3 -24,3 -46,0 -86,-15 -121,-44 -34,-29 -51,-70 -51,-121 0,-55 15,-99 47,-132 32,-34 74,-51 125,-51 140,0 209,98 209,295 0,231 -110,404 -331,519zm923 1069c-89,0 -177,-17 -265,-52 -89,-34 -165,-77 -228,-128l143 -197c58,46 116,82 173,108 58,25 120,38 187,38 71,0 123,-14 157,-43 33,-30 50,-67 50,-113 0,-55 -29,-97 -87,-126 -59,-29 -122,-57 -191,-84 -87,-31 -170,-75 -248,-131 -79,-56 -118,-138 -118,-248 0,-113 43,-206 128,-280 86,-73 202,-110 346,-110 91,0 172,16 244,48 73,32 136,68 189,109l-141 185c-46,-33 -92,-60 -139,-80 -47,-21 -96,-31 -147,-31 -66,0 -114,14 -145,41 -31,28 -46,62 -46,102 0,52 27,90 82,117 55,26 118,52 188,77 89,33 173,77 254,131 80,54 120,142 120,264 0,111 -43,206 -130,285 -86,79 -212,118 -376,118zm1310 -32l0 -1872 305 0 0 483 -11 252c55,-52 116,-97 183,-137 67,-40 145,-60 233,-60 140,0 242,45 305,136 64,90 96,217 96,381l0 817 -305 0 0 -777c0,-108 -16,-184 -49,-228 -33,-44 -85,-66 -155,-66 -57,0 -107,14 -150,41 -43,27 -93,68 -147,121l0 909 -305 0zm1893 -207c53,0 101,-12 145,-37 43,-25 89,-60 139,-106l0 -292c-177,23 -300,57 -369,103 -69,45 -103,100 -103,165 0,59 17,101 53,128 35,26 80,39 135,39zm-98 239c-113,0 -206,-35 -277,-106 -72,-71 -108,-163 -108,-276 0,-140 61,-248 182,-325 121,-77 316,-129 585,-157 -4,-69 -22,-129 -56,-179 -34,-51 -94,-76 -183,-76 -64,0 -126,12 -187,37 -61,25 -120,55 -179,90l-111 -204c70,-44 152,-83 244,-118 92,-34 189,-52 291,-52 324,0 486,188 486,562l0 772 -252 0 -21 -143 -11 0c-58,49 -121,91 -187,125 -66,33 -138,50 -216,50zm1620 -252c87,0 159,-38 218,-114 58,-76 87,-187 87,-334 0,-131 -22,-233 -66,-305 -44,-73 -116,-109 -215,-109 -92,0 -187,49 -286,146l0 607c47,39 93,67 137,84 45,17 86,25 125,25zm-567 735l0 -1817 252 0 21 138 10 0c55,-46 117,-86 185,-119 68,-34 137,-51 208,-51 162,0 288,60 378,181 89,120 134,281 134,482 0,223 -57,396 -170,519 -113,123 -242,184 -387,184 -110,0 -221,-48 -334,-143l8 217 0 409 -305 0zm2063 -735c86,0 159,-38 217,-114 58,-76 88,-187 88,-334 0,-131 -22,-233 -67,-305 -44,-73 -115,-109 -214,-109 -92,0 -188,49 -287,146l0 607c48,39 94,67 138,84 44,17 86,25 125,25zm-568 735l0 -1817 252 0 21 138 11 0c55,-46 116,-86 184,-119 68,-34 138,-51 208,-51 163,0 289,60 378,181 89,120 134,281 134,482 0,223 -56,396 -170,519 -113,123 -242,184 -387,184 -109,0 -221,-48 -334,-143l8 217 0 409 -305 0zm2053 -483c-181,0 -333,-60 -456,-180 -124,-121 -186,-288 -186,-502 0,-141 29,-263 86,-365 58,-103 132,-182 224,-236 92,-55 188,-83 289,-83 177,0 311,58 402,173 91,115 136,263 136,445 0,64 -4,113 -13,149l-827 0c12,115 53,204 123,268 70,63 157,95 261,95 57,0 110,-8 158,-25 49,-17 97,-40 145,-70l103 190c-62,41 -131,75 -207,101 -76,27 -155,40 -238,40zm-348 -806l578 0c0,-101 -22,-180 -66,-237 -44,-58 -110,-87 -199,-87 -78,0 -146,28 -204,84 -58,56 -95,136 -109,240zm1135 774l0 -1302 252 0 21 175 11 0c58,-56 122,-105 191,-146 69,-40 147,-61 236,-61 140,0 241,45 305,136 63,90 95,217 95,381l0 817 -305 0 0 -777c0,-108 -16,-184 -49,-228 -32,-44 -84,-66 -155,-66 -56,0 -106,14 -150,41 -43,27 -92,68 -147,121l0 909 -305 0zm1639 -1530c-55,0 -100,-16 -135,-49 -36,-33 -53,-74 -53,-123 0,-51 17,-94 53,-126 35,-33 80,-49 135,-49 55,0 100,16 135,49 36,32 53,75 53,126 0,49 -17,90 -53,123 -35,33 -80,49 -135,49zm-154 1530l0 -1302 305 0 0 1302 -305 0zm695 0l0 -1302 252 0 21 175 11 0c58,-56 122,-105 191,-146 69,-40 147,-61 236,-61 139,0 241,45 304,136 64,90 96,217 96,381l0 817 -305 0 0 -777c0,-108 -16,-184 -49,-228 -33,-44 -84,-66 -155,-66 -57,0 -107,14 -150,41 -43,27 -92,68 -147,121l0 909 -305 0zm1954 -604c62,0 115,-23 159,-69 44,-46 67,-111 67,-194 0,-81 -22,-144 -65,-190 -44,-45 -97,-67 -161,-67 -63,0 -117,22 -162,66 -44,44 -66,108 -66,191 0,83 22,148 66,194 45,46 99,69 162,69zm-16 1180c-155,0 -284,-28 -387,-84 -102,-56 -154,-141 -154,-256 0,-108 62,-201 186,-278l0 -11c-34,-21 -61,-49 -84,-85 -22,-35 -33,-79 -33,-132 0,-50 15,-96 44,-138 29,-43 62,-77 99,-104l0 -10c-44,-34 -83,-81 -117,-141 -35,-60 -52,-128 -52,-204 0,-150 52,-266 155,-346 103,-80 223,-121 359,-121 67,0 131,11 191,32l467 0 0 226 -239 0c50,58 74,131 74,220 0,145 -47,255 -143,330 -95,75 -212,112 -350,112 -62,0 -121,-11 -177,-34 -20,18 -35,36 -47,54 -11,19 -17,42 -17,71 0,37 15,66 46,87 31,21 86,32 166,32l231 0c318,0 477,107 477,321 0,129 -63,238 -188,326 -126,88 -295,133 -507,133zm48 -199c104,0 189,-22 255,-64 65,-42 98,-91 98,-146 0,-51 -20,-86 -60,-103 -40,-18 -97,-27 -171,-27l-178 0c-70,0 -130,-6 -177,-18 -67,51 -101,108 -101,172 0,58 30,104 90,137 60,32 141,49 244,49zm875 106l-66 -167c182,-69 271,-176 268,-321 -7,0 -15,0 -24,0 -51,0 -97,-17 -137,-49 -40,-33 -59,-79 -59,-139 0,-57 19,-103 59,-137 40,-34 88,-52 145,-52 70,0 126,28 167,83 40,54 61,131 61,230 0,131 -36,244 -109,340 -72,95 -174,166 -305,212zm1289 -483l0 -1734 554 0c179,0 327,31 444,94 118,63 177,174 177,333 0,83 -22,160 -64,231 -42,70 -102,119 -178,145l0 11c96,21 175,66 238,134 62,68 94,160 94,277 0,173 -63,301 -190,385 -126,83 -285,124 -476,124l-599 0zm307 -1018l221 0c120,0 207,-22 262,-66 55,-45 82,-104 82,-178 0,-85 -28,-145 -85,-180 -56,-36 -141,-53 -254,-53l-226 0 0 477zm0 779l260 0c265,0 398,-95 398,-286 0,-175 -133,-262 -398,-262l-260 0 0 548zm1276 239l0 -1734 1045 0 0 260 -738 0 0 443 624 0 0 259 -624 0 0 512 764 0 0 260 -1071 0zm1427 0l0 -1734 1047 0 0 260 -740 0 0 490 631 0 0 260 -631 0 0 724 -307 0zm1999 32c-225,0 -408,-81 -550,-243 -143,-161 -214,-383 -214,-664 0,-279 71,-498 214,-655 142,-157 325,-236 550,-236 226,0 410,79 553,236 142,157 213,376 213,655 0,281 -71,503 -213,664 -143,162 -327,243 -553,243zm0 -268c136,0 245,-58 326,-174 81,-115 122,-270 122,-465 0,-194 -41,-347 -122,-457 -81,-111 -190,-166 -326,-166 -136,0 -245,55 -326,166 -82,110 -122,263 -122,457 0,195 40,350 122,465 81,116 190,174 326,174zm1421 -687l247 0c244,0 366,-99 366,-297 0,-99 -32,-168 -94,-208 -63,-40 -154,-59 -272,-59l-247 0 0 564zm0 923l-307 0 0 -1734 586 0c180,0 331,37 453,111 122,75 183,209 183,403 0,133 -31,240 -94,321 -63,82 -146,140 -251,175l414 724 -345 0 -374 -679 -265 0 0 679zm1262 0l0 -1734 1045 0 0 260 -737 0 0 443 623 0 0 259 -623 0 0 512 764 0 0 260 -1072 0zm2085 -1530c-55,0 -100,-16 -136,-49 -35,-33 -53,-74 -53,-123 0,-51 18,-94 53,-126 36,-33 81,-49 136,-49 54,0 100,16 135,49 35,32 53,75 53,126 0,49 -18,90 -53,123 -35,33 -81,49 -135,49zm-154 1530l0 -1302 305 0 0 1302 -305 0zm1153 32c-152,0 -259,-43 -320,-130 -62,-87 -93,-201 -93,-342l0 -621 -186 0 0 -228 202 -13 37 -355 254 0 0 355 332 0 0 241 -332 0 0 621c0,152 61,228 183,228 45,0 90,-10 136,-29l53 225c-36,13 -76,24 -121,33 -45,10 -93,15 -145,15zm1029 -32l0 -1872 305 0 0 483 -10 252c54,-52 115,-97 183,-137 67,-40 145,-60 233,-60 140,0 241,45 305,136 64,90 95,217 95,381l0 817 -305 0 0 -777c0,-108 -16,-184 -49,-228 -32,-44 -84,-66 -155,-66 -56,0 -106,14 -150,41 -43,27 -92,68 -147,121l0 909 -305 0zm1894 -207c53,0 101,-12 144,-37 43,-25 90,-60 139,-106l0 -292c-176,23 -299,57 -368,103 -69,45 -104,100 -104,165 0,59 18,101 53,128 36,26 81,39 136,39zm-98 239c-114,0 -206,-35 -278,-106 -71,-71 -107,-163 -107,-276 0,-140 61,-248 182,-325 121,-77 316,-129 584,-157 -3,-69 -22,-129 -55,-179 -34,-51 -95,-76 -183,-76 -64,0 -126,12 -187,37 -61,25 -121,55 -179,90l-112 -204c71,-44 152,-83 244,-118 92,-34 189,-52 292,-52 324,0 485,188 485,562l0 772 -252 0 -21 -143 -10 0c-59,49 -121,91 -187,125 -67,33 -139,50 -216,50zm1620 -252c86,0 159,-38 217,-114 58,-76 88,-187 88,-334 0,-131 -22,-233 -67,-305 -44,-73 -116,-109 -214,-109 -92,0 -188,49 -287,146l0 607c48,39 94,67 138,84 44,17 86,25 125,25zm-568 735l0 -1817 252 0 21 138 11 0c55,-46 116,-86 184,-119 68,-34 138,-51 208,-51 163,0 289,60 378,181 90,120 134,281 134,482 0,223 -56,396 -170,519 -113,123 -242,184 -387,184 -109,0 -221,-48 -334,-143l8 217 0 409 -305 0zm2063 -735c87,0 159,-38 218,-114 58,-76 87,-187 87,-334 0,-131 -22,-233 -66,-305 -44,-73 -116,-109 -215,-109 -92,0 -187,49 -286,146l0 607c47,39 93,67 138,84 44,17 85,25 124,25zm-567 735l0 -1817 252 0 21 138 10 0c55,-46 117,-86 185,-119 68,-34 137,-51 208,-51 163,0 289,60 378,181 89,120 134,281 134,482 0,223 -57,396 -170,519 -113,123 -242,184 -387,184 -110,0 -221,-48 -334,-143l8 217 0 409 -305 0zm2052 -483c-180,0 -332,-60 -456,-180 -124,-121 -185,-288 -185,-502 0,-141 28,-263 86,-365 57,-103 132,-182 224,-236 92,-55 188,-83 289,-83 177,0 310,58 402,173 91,115 136,263 136,445 0,64 -4,113 -13,149l-827 0c12,115 53,204 123,268 70,63 157,95 261,95 57,0 109,-8 158,-25 48,-17 97,-40 144,-70l104 190c-62,41 -131,75 -207,101 -76,27 -156,40 -239,40zm-347 -806l578 0c0,-101 -22,-180 -66,-237 -45,-58 -111,-87 -199,-87 -78,0 -146,28 -204,84 -59,56 -95,136 -109,240zm1135 774l0 -1302 252 0 21 175 11 0c58,-56 121,-105 190,-146 69,-40 148,-61 236,-61 140,0 242,45 305,136 64,90 96,217 96,381l0 817 -305 0 0 -777c0,-108 -16,-184 -49,-228 -33,-44 -85,-66 -155,-66 -57,0 -107,14 -150,41 -43,27 -92,68 -147,121l0 909 -305 0zm1848 32c-88,0 -177,-17 -265,-52 -89,-34 -165,-77 -228,-128l143 -197c58,46 116,82 174,108 57,25 119,38 187,38 70,0 122,-14 156,-43 34,-30 50,-67 50,-113 0,-55 -29,-97 -87,-126 -58,-29 -122,-57 -191,-84 -87,-31 -169,-75 -248,-131 -79,-56 -118,-138 -118,-248 0,-113 43,-206 129,-280 85,-73 201,-110 346,-110 90,0 171,16 244,48 72,32 135,68 188,109l-141 185c-46,-33 -92,-60 -139,-80 -47,-21 -96,-31 -147,-31 -65,0 -113,14 -144,41 -31,28 -47,62 -47,102 0,52 28,90 82,117 55,26 118,52 189,77 88,33 172,77 253,131 80,54 120,142 120,264 0,111 -43,206 -129,285 -87,79 -213,118 -377,118zm902 -602l-43 -904 -8 -302 308 0 -11 302 -42 904 -204 0zm103 602c-57,0 -104,-20 -142,-58 -38,-39 -57,-89 -57,-149 0,-60 19,-110 57,-148 38,-39 85,-59 142,-59 57,0 103,20 141,59 37,38 55,88 55,148 0,60 -18,110 -55,149 -38,38 -84,58 -141,58z"/>
   <polygon class="fil2" points="16626,0 17211,0 17211,2468 16626,2468 "/>
   <polygon class="fil3" points="16626,2468 17211,2468 17211,4936 16626,4936 "/>
   <polygon class="fil4" points="16626,4936 17211,4936 17211,7404 16626,7404 "/>
   <polygon class="fil5" points="16626,7404 17211,7404 17211,9872 16626,9872 "/>
   <polygon class="fil6" points="16626,9872 17211,9872 17211,12341 16626,12341 "/>
   <polygon class="fil7" points="16626,12341 17211,12341 17211,14809 16626,14809 "/>
   <polygon class="fil8" points="16626,14809 17211,14809 17211,17277 16626,17277 "/>
  </g>
 </g>
</svg>
