<?xml version="1.0" encoding="UTF-8"?>
<!DOCTYPE svg PUBLIC "-//W3C//DTD SVG 1.1//EN" "http://www.w3.org/Graphics/SVG/1.1/DTD/svg11.dtd">
<!-- Creator: CorelDRAW X8 -->
<svg xmlns="http://www.w3.org/2000/svg" xml:space="preserve" width="118.534mm" height="56.4965mm" version="1.1" style="shape-rendering:geometricPrecision; text-rendering:geometricPrecision; image-rendering:optimizeQuality; fill-rule:evenodd; clip-rule:evenodd"
viewBox="0 0 45320 21601"
 xmlns:xlink="http://www.w3.org/1999/xlink">
 <defs>
  <style type="text/css">
   <![CDATA[
    .fil5 {fill:#FECC00}
    .fil6 {fill:#F08143}
    .fil7 {fill:#BF2B22}
    .fil4 {fill:#B0CB1F}
    .fil3 {fill:#57A7B3}
    .fil2 {fill:#008DD2}
    .fil8 {fill:#890170}
    .fil1 {fill:#FEFEFE;fill-rule:nonzero}
    .fil0 {fill:url(#id0)}
   ]]>
  </style>
  <linearGradient id="id0" gradientUnits="userSpaceOnUse" x1="2278.61" y1="13965.2" x2="12343.6" y2="3583.88">
   <stop offset="0" style="stop-opacity:1; stop-color:#D9DADA"/>
   <stop offset="1" style="stop-opacity:1; stop-color:#FEFEFE"/>
  </linearGradient>
 </defs>
 <g id="Слой_x0020_1">
  <metadata id="CorelCorpID_0Corel-Layer"/>
  <path class="fil0" d="M7231 1466c3993,0 7231,3237 7231,7231 0,3722 -2813,6787 -6429,7186 932,-2229 2069,-4909 3222,-7312 0,0 334,-727 -438,-1063 -772,-337 -1191,452 -1191,452 -527,973 -1818,3130 -3218,2881 -1469,-261 -378,-2808 -378,-2808 6954,-810 6700,-5956 2964,-5419 -2158,310 -3572,2148 -4292,4076 -888,-30 -1576,-149 -2244,-833 -435,-442 -897,135 -567,617 534,779 1407,1275 2317,1524 -316,1366 -442,3585 1311,3979 1667,375 2864,-871 2864,-871 -661,1813 -848,2750 -1414,4816 -3872,-138 -6969,-3319 -6969,-7225 0,-3994 3237,-7231 7231,-7231zm-527 5220c1291,-15 4037,-1848 3297,-2734 -436,-521 -2230,353 -3297,2734z"/>
  <path class="fil1" d="M23166 5219c0,-291 -35,-544 -107,-762 -71,-218 -170,-400 -296,-545 -126,-145 -276,-253 -449,-325 -173,-72 -363,-107 -570,-107 -207,0 -397,35 -570,107 -173,72 -323,180 -448,325 -127,145 -225,327 -296,545 -72,218 -107,471 -107,762 0,290 35,545 107,763 71,218 169,398 296,543 125,144 275,252 448,325 173,72 363,109 570,109 207,0 397,-37 570,-109 173,-73 323,-181 449,-325 126,-145 225,-325 296,-543 72,-218 107,-473 107,-763zm100 1779c58,-16 126,-32 203,-46 76,-15 155,-26 238,-36 81,-9 163,-17 246,-22 81,-5 162,-7 241,-7l67 0 0 760c-125,-12 -278,-22 -457,-29 -178,-7 -368,-11 -568,-11 -149,0 -283,4 -403,11 -119,7 -238,15 -359,23 -119,9 -245,16 -374,23 -130,8 -257,11 -381,11 -373,0 -703,-59 -988,-179 -286,-118 -527,-286 -721,-503 -197,-217 -344,-475 -444,-776 -100,-301 -150,-633 -150,-998 0,-364 53,-698 156,-1001 104,-303 255,-565 453,-784 199,-218 443,-389 733,-511 288,-120 617,-181 986,-181 369,0 698,61 987,181 290,122 534,291 732,508 199,217 351,474 454,772 104,300 155,627 155,981 0,186 -18,367 -53,543 -36,176 -88,340 -155,493 -68,152 -154,294 -256,427 -102,132 -219,245 -350,340l8 11zm4658 -602l-1808 0 -463 1213 -932 0 1896 -4772 799 0 1895 4772 -924 0 -463 -1213zm-911 -2412c-171,497 -322,914 -453,1249l-162 432 1245 0 -163 -431c-131,-337 -282,-754 -453,-1250l-14 0zm4542 3625l-877 0 0 -4041 -1542 0 0 -731 3958 0 0 731 -1539 0 0 4041zm4556 -1213l-1808 0 -462 1213 -932 0 1895 -4772 799 0 1896 4772 -925 0 -463 -1213zm-911 -2412c-171,497 -322,914 -453,1249l-162 432 1245 0 -162 -431c-132,-337 -283,-754 -453,-1250l-15 0zm6506 286c0,333 -92,614 -276,847 -184,232 -469,403 -856,515l0 14 1432 1963 -1053 0 -1299 -1849 -601 0 0 1849 -877 0 0 -4772 1451 0c241,0 464,13 671,41 207,27 384,68 531,123 280,106 497,266 649,475 153,211 228,475 228,794zm-2223 759c200,0 369,-8 508,-26 139,-19 255,-46 350,-81 175,-66 297,-157 365,-273 67,-114 101,-247 101,-397 0,-128 -27,-242 -80,-341 -54,-99 -144,-175 -272,-233 -83,-39 -188,-65 -313,-84 -125,-18 -281,-26 -467,-26l-622 0 0 1461 430 0zm-18978 8799l2349 0 0 731 -3226 0 0 -4773 3097 0 0 731 -2220 0 0 1235 1907 0 0 731 -1907 0 0 1345zm5045 -436c87,-258 151,-443 191,-554 39,-111 122,-338 247,-680l886 -2372 925 0 -1868 4773 -784 0 -1867 -4773 931 0 886 2372c125,342 208,569 247,680 40,111 103,296 191,554l15 0zm3766 436l2349 0 0 731 -3226 0 0 -4773 3097 0 0 731 -2220 0 0 1235 1907 0 0 731 -1907 0 0 1345zm5763 -1824c343,489 622,921 836,1299l21 0c-28,-620 -43,-1072 -43,-1356l0 -2161 877 0 0 4773 -917 0 -1558 -2198c-274,-380 -557,-821 -850,-1323l-21 0c28,585 43,1038 43,1359l0 2162 -877 0 0 -4773 917 0 1572 2218zm4787 2555l-878 0 0 -4042 -1542 0 0 -731 3958 0 0 731 -1538 0 0 4042zm4555 -1373c0,-121 -29,-219 -88,-294 -60,-75 -141,-136 -243,-183 -102,-49 -217,-87 -343,-117 -127,-30 -261,-59 -400,-87 -185,-41 -363,-89 -531,-145 -168,-56 -317,-134 -445,-232 -128,-99 -230,-225 -305,-377 -77,-152 -115,-342 -115,-571 0,-252 44,-472 133,-659 88,-187 208,-341 359,-464 152,-122 329,-214 534,-274 203,-61 432,-92 687,-92 254,0 510,25 767,74 257,50 478,115 664,193l0 749c-247,-97 -485,-168 -713,-212 -226,-44 -441,-66 -640,-66 -288,0 -509,53 -665,158 -156,104 -234,261 -234,471 0,122 25,222 76,301 52,78 120,142 208,194 87,51 188,92 303,124 113,30 234,58 362,85 202,43 394,93 577,149 184,54 347,132 490,232 141,101 254,231 337,391 83,161 124,367 124,617 0,257 -47,480 -142,667 -95,188 -230,344 -406,467 -174,122 -386,213 -636,273 -251,59 -523,89 -821,89 -259,0 -515,-26 -766,-77 -251,-51 -459,-123 -626,-216l0 -738c236,102 465,177 689,223 223,46 455,69 692,69 138,0 274,-11 407,-34 133,-22 252,-61 358,-115 106,-55 192,-129 256,-225 65,-93 96,-209 96,-348z"/>
  <path class="fil1" d="M929 21022l-347 -1745 318 0 152 880c14,93 29,186 43,279 14,93 28,186 43,279l10 0c18,-93 37,-186 56,-279 20,-93 39,-186 59,-279l214 -880 269 0 214 880c19,91 39,183 58,276 20,94 39,188 59,282l11 0c14,-94 28,-188 42,-280 15,-93 28,-185 40,-278l152 -880 297 0 -334 1745 -384 0 -216 -918c-15,-68 -28,-135 -42,-203 -13,-68 -25,-134 -36,-200l-10 0c-24,128 -50,262 -81,403l-210 918 -377 0zm1935 0l0 -1884 307 0 0 485 -10 254c55,-52 116,-97 184,-137 67,-40 146,-61 234,-61 141,0 243,46 307,137 64,90 96,218 96,384l0 822 -306 0 0 -782c0,-109 -17,-185 -50,-230 -33,-44 -85,-66 -156,-66 -57,0 -107,14 -151,41 -43,28 -93,68 -148,121l0 916 -307 0zm1906 -208c53,0 102,-13 145,-38 44,-25 90,-60 140,-106l0 -294c-178,23 -301,57 -371,103 -69,45 -104,101 -104,167 0,58 18,101 54,128 35,26 81,40 136,40zm-99 240c-114,0 -207,-36 -279,-107 -72,-71 -108,-164 -108,-277 0,-141 61,-250 183,-327 122,-78 318,-131 588,-159 -3,-70 -22,-130 -56,-180 -34,-51 -95,-76 -184,-76 -64,0 -127,12 -188,37 -61,25 -121,55 -180,91l-112 -206c71,-44 153,-84 245,-119 93,-34 191,-52 294,-52 325,0 488,189 488,566l0 777 -253 0 -22 -144 -10 0c-59,50 -122,91 -188,125 -67,34 -140,51 -218,51zm1478 0c-152,0 -260,-44 -322,-131 -63,-87 -94,-202 -94,-344l0 -625 -187 0 0 -229 203 -14 38 -357 256 0 0 357 333 0 0 243 -333 0 0 625c0,153 61,229 184,229 44,0 90,-9 136,-29l53 227c-35,12 -76,23 -121,33 -45,10 -94,15 -146,15zm561 -1076l-75 -136c73,-42 128,-90 166,-141 37,-52 56,-117 56,-195 -7,2 -15,3 -24,3 -47,0 -87,-15 -122,-44 -34,-30 -52,-70 -52,-122 0,-55 16,-99 48,-133 32,-34 74,-51 126,-51 140,0 211,99 211,296 0,233 -112,408 -334,523zm929 1076c-89,0 -178,-17 -267,-52 -89,-35 -166,-78 -230,-130l144 -197c59,46 117,82 175,108 58,26 121,39 188,39 72,0 124,-15 158,-44 34,-30 51,-67 51,-114 0,-55 -30,-97 -89,-126 -58,-30 -122,-58 -192,-85 -87,-32 -170,-76 -249,-132 -79,-56 -119,-139 -119,-249 0,-114 43,-208 129,-282 87,-74 203,-111 349,-111 91,0 172,16 245,49 73,32 136,68 190,109l-142 187c-46,-34 -93,-61 -140,-82 -47,-20 -96,-30 -148,-30 -66,0 -114,13 -145,41 -32,28 -47,62 -47,103 0,51 28,91 83,117 55,27 118,53 189,78 89,33 174,77 255,132 81,54 121,143 121,265 0,112 -43,208 -130,287 -87,79 -214,119 -379,119zm1318 -32l0 -1884 307 0 0 485 -11 254c56,-52 117,-97 185,-137 67,-40 145,-61 234,-61 141,0 243,46 307,137 64,90 96,218 96,384l0 822 -307 0 0 -782c0,-109 -16,-185 -49,-230 -33,-44 -85,-66 -156,-66 -57,0 -107,14 -151,41 -43,28 -93,68 -148,121l0 916 -307 0zm1906 -208c53,0 102,-13 145,-38 44,-25 90,-60 140,-106l0 -294c-178,23 -301,57 -371,103 -69,45 -104,101 -104,167 0,58 18,101 53,128 36,26 81,40 137,40zm-99 240c-114,0 -207,-36 -279,-107 -72,-71 -108,-164 -108,-277 0,-141 61,-250 183,-327 122,-78 318,-131 588,-159 -3,-70 -22,-130 -56,-180 -34,-51 -95,-76 -184,-76 -64,0 -127,12 -188,37 -61,25 -122,55 -180,91l-112 -206c71,-44 153,-84 245,-119 93,-34 190,-52 294,-52 325,0 488,189 488,566l0 777 -253 0 -22 -144 -10 0c-59,50 -122,91 -189,125 -66,34 -139,51 -217,51zm1630 -254c88,0 161,-38 219,-114 59,-77 88,-189 88,-337 0,-131 -22,-234 -66,-307 -45,-73 -117,-109 -216,-109 -93,0 -189,49 -289,147l0 611c48,39 95,67 139,84 45,17 86,25 125,25zm-571 740l0 -1829 254 0 21 139 11 0c55,-46 117,-86 185,-120 69,-34 139,-51 210,-51 164,0 290,61 380,182 90,121 135,283 135,486 0,224 -57,398 -171,521 -114,124 -244,186 -389,186 -111,0 -223,-48 -337,-144l8 219 0 411 -307 0zm2077 -740c87,0 160,-38 219,-114 58,-77 88,-189 88,-337 0,-131 -23,-234 -67,-307 -44,-73 -117,-109 -216,-109 -93,0 -189,49 -288,147l0 611c48,39 94,67 138,84 45,17 87,25 126,25zm-571 740l0 -1829 253 0 22 139 10 0c55,-46 117,-86 186,-120 68,-34 138,-51 209,-51 164,0 291,61 380,182 90,121 135,283 135,486 0,224 -57,398 -171,521 -113,124 -243,186 -389,186 -111,0 -223,-48 -336,-144l8 219 0 411 -307 0zm2065 -486c-181,0 -334,-61 -459,-182 -124,-121 -187,-289 -187,-504 0,-142 29,-265 87,-368 58,-103 133,-183 226,-238 92,-55 189,-83 291,-83 178,0 312,58 404,174 92,116 137,265 137,448 0,64 -4,114 -13,150l-833 0c13,115 54,205 124,269 71,64 158,96 263,96 57,0 110,-8 159,-25 49,-17 98,-40 146,-71l104 192c-63,41 -132,75 -209,102 -76,27 -156,40 -240,40zm-349 -811l581 0c0,-102 -22,-181 -66,-239 -45,-58 -111,-87 -200,-87 -79,0 -147,28 -206,84 -59,56 -95,137 -109,242zm1142 779l0 -1311 254 0 21 177 11 0c58,-57 122,-106 192,-147 69,-41 148,-62 237,-62 141,0 243,46 307,137 64,90 96,218 96,384l0 822 -307 0 0 -782c0,-109 -16,-185 -49,-230 -33,-44 -85,-66 -156,-66 -57,0 -107,14 -151,41 -44,28 -93,68 -148,121l0 916 -307 0zm1649 -1540c-55,0 -100,-16 -136,-49 -35,-33 -53,-75 -53,-124 0,-52 18,-94 53,-127 36,-33 81,-50 136,-50 55,0 101,17 136,50 36,33 54,75 54,127 0,49 -18,91 -54,124 -35,33 -81,49 -136,49zm-155 1540l0 -1311 307 0 0 1311 -307 0zm700 0l0 -1311 253 0 22 177 10 0c59,-57 123,-106 192,-147 70,-41 149,-62 238,-62 141,0 243,46 307,137 64,90 96,218 96,384l0 822 -307 0 0 -782c0,-109 -16,-185 -49,-230 -33,-44 -85,-66 -156,-66 -57,0 -108,14 -151,41 -44,28 -93,68 -148,121l0 916 -307 0zm1967 -609c62,0 115,-23 160,-69 44,-46 67,-111 67,-195 0,-82 -22,-145 -66,-191 -43,-45 -97,-68 -161,-68 -64,0 -119,23 -163,67 -45,45 -67,109 -67,192 0,84 22,149 67,195 44,46 99,69 163,69zm-16 1188c-157,0 -287,-28 -390,-84 -103,-56 -155,-142 -155,-258 0,-108 62,-202 187,-280l0 -11c-34,-21 -62,-49 -84,-85 -22,-35 -33,-80 -33,-133 0,-50 14,-96 44,-139 29,-43 62,-77 100,-104l0 -11c-45,-34 -84,-81 -119,-141 -35,-61 -52,-129 -52,-206 0,-151 52,-267 156,-348 104,-81 225,-122 362,-122 67,0 131,11 192,32l469 0 0 227 -240 0c50,59 75,133 75,222 0,146 -48,257 -144,332 -96,76 -214,114 -352,114 -63,0 -122,-12 -179,-35 -20,18 -35,36 -47,55 -11,18 -17,42 -17,70 0,38 15,67 46,88 32,22 87,32 167,32l232 0c321,0 481,108 481,323 0,130 -63,240 -190,329 -126,89 -296,133 -509,133zm48 -200c105,0 190,-21 256,-64 66,-43 99,-92 99,-147 0,-52 -20,-86 -60,-104 -40,-18 -98,-27 -173,-27l-178 0c-72,0 -131,-6 -179,-18 -68,51 -102,109 -102,173 0,59 31,105 91,137 61,33 142,50 246,50zm880 107l-66 -168c183,-70 273,-178 269,-323 -7,0 -15,0 -24,0 -51,0 -97,-17 -137,-50 -40,-33 -60,-79 -60,-140 0,-57 20,-103 60,-137 40,-35 88,-52 145,-52 71,0 127,27 168,82 41,55 62,133 62,233 0,131 -37,245 -110,341 -73,96 -175,167 -307,214zm1297 -486l0 -1745 558 0c180,0 329,31 447,94 119,63 178,175 178,335 0,84 -22,161 -64,232 -43,72 -103,120 -179,147l0 11c96,21 176,66 239,135 63,68 94,161 94,278 0,175 -63,304 -190,387 -128,84 -287,126 -479,126l-604 0zm310 -1025l222 0c121,0 209,-22 264,-67 55,-44 82,-104 82,-178 0,-86 -28,-146 -85,-182 -57,-35 -142,-53 -256,-53l-227 0 0 480zm0 785l262 0c266,0 400,-96 400,-289 0,-176 -134,-264 -400,-264l-262 0 0 553zm1284 240l0 -1745 1051 0 0 261 -742 0 0 446 627 0 0 261 -627 0 0 515 769 0 0 262 -1078 0zm1436 0l0 -1745 1054 0 0 261 -745 0 0 494 635 0 0 261 -635 0 0 729 -309 0zm2012 32c-226,0 -411,-81 -554,-244 -143,-163 -215,-386 -215,-669 0,-281 72,-501 215,-659 143,-158 328,-238 554,-238 228,0 413,80 556,238 144,158 215,378 215,659 0,283 -71,506 -215,669 -143,163 -328,244 -556,244zm0 -270c137,0 246,-58 328,-174 82,-117 123,-273 123,-469 0,-196 -41,-349 -123,-460 -82,-111 -191,-167 -328,-167 -137,0 -247,56 -328,167 -82,111 -123,264 -123,460 0,196 41,352 123,469 81,116 191,174 328,174zm1430 -691l249 0c245,0 368,-99 368,-299 0,-99 -32,-169 -95,-209 -63,-40 -154,-60 -273,-60l-249 0 0 568zm0 929l-309 0 0 -1745 590 0c181,0 333,37 456,112 123,74 184,210 184,405 0,134 -32,241 -95,323 -63,82 -147,141 -252,176l416 729 -346 0 -377 -683 -267 0 0 683zm1271 0l0 -1745 1051 0 0 261 -742 0 0 446 627 0 0 261 -627 0 0 515 769 0 0 262 -1078 0zm2097 -1540c-55,0 -100,-16 -136,-49 -35,-33 -53,-75 -53,-124 0,-52 18,-94 53,-127 36,-33 81,-50 136,-50 56,0 101,17 136,50 36,33 54,75 54,127 0,49 -18,91 -54,124 -35,33 -80,49 -136,49zm-154 1540l0 -1311 306 0 0 1311 -306 0zm1160 32c-153,0 -260,-44 -322,-131 -63,-87 -94,-202 -94,-344l0 -625 -187 0 0 -229 203 -14 38 -357 256 0 0 357 333 0 0 243 -333 0 0 625c0,153 61,229 184,229 44,0 90,-9 136,-29l53 227c-35,12 -76,23 -121,33 -45,10 -94,15 -146,15zm1036 -32l0 -1884 307 0 0 485 -11 254c55,-52 117,-97 184,-137 68,-40 146,-61 235,-61 141,0 243,46 307,137 64,90 96,218 96,384l0 822 -307 0 0 -782c0,-109 -16,-185 -49,-230 -33,-44 -85,-66 -156,-66 -57,0 -107,14 -151,41 -44,28 -93,68 -148,121l0 916 -307 0zm1906 -208c53,0 101,-13 145,-38 44,-25 90,-60 140,-106l0 -294c-178,23 -301,57 -371,103 -69,45 -104,101 -104,167 0,58 18,101 53,128 36,26 81,40 137,40zm-99 240c-114,0 -207,-36 -279,-107 -72,-71 -108,-164 -108,-277 0,-141 61,-250 183,-327 122,-78 318,-131 588,-159 -3,-70 -22,-130 -56,-180 -34,-51 -95,-76 -184,-76 -64,0 -127,12 -188,37 -62,25 -122,55 -180,91l-112 -206c71,-44 153,-84 245,-119 93,-34 190,-52 294,-52 325,0 488,189 488,566l0 777 -253 0 -22 -144 -11 0c-58,50 -121,91 -188,125 -66,34 -139,51 -217,51zm1630 -254c88,0 161,-38 219,-114 59,-77 88,-189 88,-337 0,-131 -22,-234 -66,-307 -45,-73 -117,-109 -217,-109 -92,0 -188,49 -288,147l0 611c48,39 95,67 139,84 44,17 86,25 125,25zm-571 740l0 -1829 254 0 21 139 11 0c55,-46 117,-86 185,-120 69,-34 139,-51 210,-51 164,0 290,61 380,182 90,121 135,283 135,486 0,224 -57,398 -171,521 -114,124 -244,186 -390,186 -110,0 -222,-48 -336,-144l8 219 0 411 -307 0zm2077 -740c87,0 160,-38 219,-114 58,-77 88,-189 88,-337 0,-131 -23,-234 -67,-307 -45,-73 -117,-109 -216,-109 -93,0 -189,49 -289,147l0 611c48,39 95,67 139,84 45,17 87,25 126,25zm-571 740l0 -1829 253 0 21 139 11 0c55,-46 117,-86 186,-120 68,-34 138,-51 209,-51 164,0 291,61 380,182 90,121 135,283 135,486 0,224 -57,398 -171,521 -114,124 -243,186 -389,186 -111,0 -223,-48 -337,-144l8 219 0 411 -306 0zm2065 -486c-181,0 -334,-61 -459,-182 -124,-121 -187,-289 -187,-504 0,-142 29,-265 87,-368 58,-103 133,-183 226,-238 92,-55 189,-83 291,-83 177,0 312,58 404,174 91,116 137,265 137,448 0,64 -4,114 -13,150l-833 0c13,115 54,205 124,269 71,64 158,96 263,96 57,0 110,-8 159,-25 49,-17 97,-40 145,-71l105 192c-63,41 -132,75 -209,102 -76,27 -156,40 -240,40zm-349 -811l581 0c0,-102 -22,-181 -66,-239 -45,-58 -112,-87 -200,-87 -79,0 -147,28 -206,84 -59,56 -95,137 -109,242zm1142 779l0 -1311 253 0 22 177 10 0c59,-57 123,-106 193,-147 69,-41 148,-62 237,-62 141,0 243,46 307,137 64,90 96,218 96,384l0 822 -307 0 0 -782c0,-109 -16,-185 -49,-230 -33,-44 -85,-66 -156,-66 -57,0 -108,14 -151,41 -44,28 -93,68 -148,121l0 916 -307 0zm1860 32c-89,0 -178,-17 -267,-52 -89,-35 -165,-78 -229,-130l144 -197c58,46 117,82 175,108 57,26 120,39 188,39 71,0 123,-15 157,-44 34,-30 51,-67 51,-114 0,-55 -29,-97 -88,-126 -59,-30 -123,-58 -192,-85 -88,-32 -171,-76 -250,-132 -79,-56 -119,-139 -119,-249 0,-114 44,-208 130,-282 86,-74 202,-111 348,-111 91,0 173,16 246,49 73,32 136,68 189,109l-141 187c-47,-34 -93,-61 -140,-82 -48,-20 -97,-30 -149,-30 -65,0 -114,13 -145,41 -31,28 -47,62 -47,103 0,51 28,91 83,117 55,27 118,53 189,78 89,33 174,77 255,132 81,54 122,143 122,265 0,112 -44,208 -131,287 -87,79 -214,119 -379,119zm907 -606l-42 -910 -8 -304 309 0 -10 304 -43 910 -206 0zm105 606c-57,0 -105,-20 -143,-59 -39,-39 -58,-89 -58,-149 0,-61 19,-111 58,-150 38,-39 86,-58 143,-58 56,0 104,19 141,58 37,39 56,89 56,150 0,60 -19,110 -56,149 -37,39 -85,59 -141,59z"/>
  <polygon class="fil2" points="16734,0 17322,0 17322,2484 16734,2484 "/>
  <polygon class="fil3" points="16734,2484 17322,2484 17322,4968 16734,4968 "/>
  <polygon class="fil4" points="16734,4968 17322,4968 17322,7452 16734,7452 "/>
  <polygon class="fil5" points="16734,7452 17322,7452 17322,9936 16734,9936 "/>
  <polygon class="fil6" points="16734,9936 17322,9936 17322,12420 16734,12420 "/>
  <polygon class="fil7" points="16734,12420 17322,12420 17322,14904 16734,14904 "/>
  <polygon class="fil8" points="16734,14904 17322,14904 17322,17388 16734,17388 "/>
 </g>
</svg>
