<?xml version="1.0" encoding="UTF-8"?>
<!DOCTYPE svg PUBLIC "-//W3C//DTD SVG 1.1//EN" "http://www.w3.org/Graphics/SVG/1.1/DTD/svg11.dtd">
<!-- Creator: CorelDRAW X8 -->
<svg xmlns="http://www.w3.org/2000/svg" xml:space="preserve" width="5.5328mm" height="5.6168mm" version="1.1" style="shape-rendering:geometricPrecision; text-rendering:geometricPrecision; image-rendering:optimizeQuality; fill-rule:evenodd; clip-rule:evenodd"
viewBox="0 0 25 25"
 xmlns:xlink="http://www.w3.org/1999/xlink">
 <defs>
  <style type="text/css">
   <![CDATA[
    .fil0 {fill:#FEFEFE;fill-rule:nonzero}
   ]]>
  </style>
 </defs>
 <g id="Слой_x0020_1">
  <metadata id="CorelCorpID_0Corel-Layer"/>
  <path class="fil0" d="M21 14c0,-1 1,-1 1,-1 0,-1 0,-1 -1,-2l3 -2c0,0 0,0 0,-1l-2 -4c0,0 -1,0 -1,0l-3 1c-1,0 -2,-1 -2,-1l-1 -3c0,-1 0,-1 0,-1l0 0 -5 0 0 0c-1,0 -1,0 -1,1l0 3c-1,0 -2,1 -3,1l-3 -1c0,0 0,0 0,0l-3 5c0,0 0,0 0,0l3 2c0,1 0,1 0,2 0,0 0,0 0,1l-3 2c0,0 0,0 0,1l3 4c0,0 0,0 0,0l4 -1c0,0 1,1 2,1l0 3c0,1 0,1 1,1l5 0c0,0 0,0 0,-1l1 -3c1,0 1,-1 2,-1l3 1c0,0 1,0 1,0l2 -4c1,-1 1,-1 0,-1l-3 -2zm-9 3c-2,0 -4,-2 -4,-4 0,-3 2,-5 4,-5 3,0 5,2 5,5 0,2 -2,4 -5,4z"/>
 </g>
</svg>
