<?xml version="1.0" encoding="UTF-8"?>
<!DOCTYPE svg PUBLIC "-//W3C//DTD SVG 1.1//EN" "http://www.w3.org/Graphics/SVG/1.1/DTD/svg11.dtd">
<!-- Creator: CorelDRAW X8 -->
<svg xmlns="http://www.w3.org/2000/svg" xml:space="preserve" width="5.5304mm" height="5.6168mm" version="1.1" style="shape-rendering:geometricPrecision; text-rendering:geometricPrecision; image-rendering:optimizeQuality; fill-rule:evenodd; clip-rule:evenodd"
viewBox="0 0 28 28"
 xmlns:xlink="http://www.w3.org/1999/xlink">
 <defs>
  <style type="text/css">
   <![CDATA[
    .fil0 {fill:#FEFEFE;fill-rule:nonzero}
   ]]>
  </style>
 </defs>
 <g id="Слой_x0020_1">
  <metadata id="CorelCorpID_0Corel-Layer"/>
  <path class="fil0" d="M26 7l-2 -3c0,0 0,0 0,0l-4 2c-1,-1 -2,-1 -2,-2l-1 -3c0,-1 0,-1 0,-1l0 0 -6 0 0 0c0,0 -1,0 -1,1l0 3c-1,1 -2,1 -3,2l-3 -2c-1,0 -1,0 -1,1l-3 5c0,0 0,0 0,0l3 3c0,0 0,0 0,1 0,1 0,1 0,1l-3 3c0,0 0,0 0,1l3 5c0,0 0,0 1,0l3 -2c1,1 2,1 3,2l0 3c0,1 1,1 1,1l4 0c-1,-1 -1,-2 -1,-3l0 -6 0 0c-3,0 -5,-2 -5,-5 0,-3 2,-5 5,-5 0,0 0,0 0,0 1,-1 2,-2 3,-2l8 0c0,0 1,0 1,0zm-10 16l10 0 0 -12 -10 0 0 12zm1 -15l8 0c1,0 3,1 3,3l0 14c0,2 -2,3 -3,3l-8 0c-1,0 -2,-1 -2,-3l0 -14c0,-2 1,-3 2,-3zm2 18l4 0 0 -1 -4 0 0 1z"/>
 </g>
</svg>
