<?xml version="1.0" encoding="UTF-8"?>
<!DOCTYPE svg PUBLIC "-//W3C//DTD SVG 1.1//EN" "http://www.w3.org/Graphics/SVG/1.1/DTD/svg11.dtd">
<!-- Creator: CorelDRAW X8 -->
<svg xmlns="http://www.w3.org/2000/svg" xml:space="preserve" width="6.6021mm" height="6.5362mm" version="1.1" style="shape-rendering:geometricPrecision; text-rendering:geometricPrecision; image-rendering:optimizeQuality; fill-rule:evenodd; clip-rule:evenodd"
viewBox="0 0 25 24"
 xmlns:xlink="http://www.w3.org/1999/xlink">
 <defs>
  <style type="text/css">
   <![CDATA[
    .fil0 {fill:#FEFEFE;fill-rule:nonzero}
   ]]>
  </style>
 </defs>
 <g id="Слой_x0020_1">
  <metadata id="CorelCorpID_0Corel-Layer"/>
  <path class="fil0" d="M14 10c0,0 0,-1 0,-1 0,-1 -1,-1 -2,-1 0,1 0,1 0,2 1,0 1,0 2,0zm1 5c2,-1 2,-3 1,-4l-6 4c1,1 3,2 5,0zm-5 -3c1,0 1,-1 1,-1 -1,-1 -1,-1 -2,0 0,0 -1,1 0,1 0,1 1,1 1,0zm3 -12l-12 9c0,0 -1,1 -1,2l0 10 10 3c1,0 1,0 2,0l12 -9c1,0 1,-2 0,-2l-8 -12c-1,-1 -2,-1 -3,-1zm-9 19c-1,1 -1,1 -1,0 -1,0 -1,-1 0,-1 0,-1 1,0 1,0 1,1 0,1 0,1zm12 -2c-3,2 -7,1 -8,-1 -2,-3 -2,-7 1,-9 3,-2 7,-1 9,1 2,3 1,7 -2,9z"/>
 </g>
</svg>
