<?xml version="1.0" encoding="UTF-8"?>
<!DOCTYPE svg PUBLIC "-//W3C//DTD SVG 1.1//EN" "http://www.w3.org/Graphics/SVG/1.1/DTD/svg11.dtd">
<!-- Creator: CorelDRAW X8 -->
<svg xmlns="http://www.w3.org/2000/svg" xml:space="preserve" width="7.1105mm" height="5.1713mm" version="1.1" style="shape-rendering:geometricPrecision; text-rendering:geometricPrecision; image-rendering:optimizeQuality; fill-rule:evenodd; clip-rule:evenodd"
viewBox="0 0 523 380"
 xmlns:xlink="http://www.w3.org/1999/xlink">
 <defs>
  <style type="text/css">
   <![CDATA[
    .fil0 {fill:#FEFEFE;fill-rule:nonzero}
   ]]>
  </style>
 </defs>
 <g id="Слой_x0020_1">
  <metadata id="CorelCorpID_0Corel-Layer"/>
  <path class="fil0" d="M333 238c-63,0 -190,32 -190,95l0 47 380 0 0 -47c0,-64 -127,-95 -190,-95zm0 -238l0 0c-53,0 -95,43 -95,95 0,53 42,95 95,95 52,0 95,-42 95,-95 0,-52 -42,-95 -95,-95zm-214 143l0 -72 -48 0 0 72 -71 0 0 47 71 0 0 72 48 0 0 -72 71 0 0 -47 -71 0z"/>
 </g>
</svg>
