<?xml version="1.0" encoding="UTF-8"?>
<!DOCTYPE svg PUBLIC "-//W3C//DTD SVG 1.1//EN" "http://www.w3.org/Graphics/SVG/1.1/DTD/svg11.dtd">
<!-- Creator: CorelDRAW X8 -->
<svg xmlns="http://www.w3.org/2000/svg" xml:space="preserve" width="5.6198mm" height="6.2442mm" version="1.1" style="shape-rendering:geometricPrecision; text-rendering:geometricPrecision; image-rendering:optimizeQuality; fill-rule:evenodd; clip-rule:evenodd"
viewBox="0 0 32 36"
 xmlns:xlink="http://www.w3.org/1999/xlink">
 <defs>
  <style type="text/css">
   <![CDATA[
    .fil0 {fill:#FEFEFE;fill-rule:nonzero}
   ]]>
  </style>
 </defs>
 <g id="Слой_x0020_1">
  <metadata id="CorelCorpID_0Corel-Layer"/>
  <polygon class="fil0" points="24,18 22,16 14,25 10,21 8,23 14,29 24,18 "/>
  <path class="fil0" d="M29 4l-2 0 0 -4 -4 0 0 4 -14 0 0 -4 -4 0 0 4 -1 0c-2,0 -4,1 -4,3l0 25c0,2 2,4 4,4l25 0c2,0 3,-2 3,-4l0 -25c0,-2 -1,-3 -3,-3zm0 28l-25 0 0 -19 25 0 0 19z"/>
 </g>
</svg>
