<?xml version="1.0" encoding="UTF-8"?>
<!DOCTYPE svg PUBLIC "-//W3C//DTD SVG 1.1//EN" "http://www.w3.org/Graphics/SVG/1.1/DTD/svg11.dtd">
<!-- Creator: CorelDRAW X8 -->
<svg xmlns="http://www.w3.org/2000/svg" xml:space="preserve" width="5.6198mm" height="6.2442mm" version="1.1" style="shape-rendering:geometricPrecision; text-rendering:geometricPrecision; image-rendering:optimizeQuality; fill-rule:evenodd; clip-rule:evenodd"
viewBox="0 0 38 42"
 xmlns:xlink="http://www.w3.org/1999/xlink">
 <defs>
  <style type="text/css">
   <![CDATA[
    .fil1 {fill:#FEFEFE}
    .fil0 {fill:#FEFEFE;fill-rule:nonzero}
   ]]>
  </style>
 </defs>
 <g id="Слой_x0020_1">
  <metadata id="CorelCorpID_0Corel-Layer"/>
  <path class="fil0" d="M34 4l-2 0 0 -4 -5 0 0 4 -16 0 0 -4 -5 0 0 4 -2 0c-2,0 -4,2 -4,4l0 30c0,2 2,4 4,4l30 0c2,0 4,-2 4,-4l0 -30c0,-2 -2,-4 -4,-4zm0 34l-30 0 0 -23 30 0 0 23z"/>
  <polygon class="fil1" points="21,34 21,28 27,28 27,25 21,25 21,18 17,18 17,25 11,25 11,28 17,28 17,34 "/>
 </g>
</svg>
