<?xml version="1.0" encoding="UTF-8"?>
<!DOCTYPE svg PUBLIC "-//W3C//DTD SVG 1.1//EN" "http://www.w3.org/Graphics/SVG/1.1/DTD/svg11.dtd">
<!-- Creator: CorelDRAW X8 -->
<svg xmlns="http://www.w3.org/2000/svg" xml:space="preserve" width="20mm" height="20.0001mm" version="1.1" style="shape-rendering:geometricPrecision; text-rendering:geometricPrecision; image-rendering:optimizeQuality; fill-rule:evenodd; clip-rule:evenodd"
viewBox="0 0 282 282"
 xmlns:xlink="http://www.w3.org/1999/xlink">
 <defs>
  <style type="text/css">
   <![CDATA[
    .fil1 {fill:#FEFEFE;fill-rule:nonzero}
    .fil0 {fill:#55ACEE;fill-rule:nonzero}
   ]]>
  </style>
 </defs>
 <g id="Слой_x0020_1">
  <metadata id="CorelCorpID_0Corel-Layer"/>
  <g id="_2658513998352">
   <path class="fil0" d="M282 141c0,78 -63,141 -141,141 -78,0 -141,-63 -141,-141 0,-78 63,-141 141,-141 78,0 141,63 141,141z"/>
   <path class="fil1" d="M228 101c-6,3 -13,5 -20,6 7,-4 13,-11 15,-19 -6,4 -14,7 -21,8 -7,-6 -15,-10 -25,-10 -19,0 -34,15 -34,33 0,3 1,6 1,8 -28,-1 -53,-15 -69,-35 -3,5 -5,11 -5,17 0,11 6,22 15,28 -5,0 -11,-2 -15,-4 0,0 0,0 0,0 0,16 11,30 27,33 -3,1 -6,1 -9,1 -2,0 -4,0 -6,0 4,13 16,23 31,23 -11,9 -26,15 -42,15 -3,0 -5,-1 -8,-1 15,10 33,15 52,15 62,0 96,-51 96,-96 0,-1 0,-3 0,-4 6,-5 12,-11 17,-18z"/>
  </g>
 </g>
</svg>
